<?xml version="1.0" encoding="utf-8"?>
<!-- Generator: Adobe Illustrator 28.0.0, SVG Export Plug-In . SVG Version: 6.00 Build 0)  -->
<svg version="1.1" id="图层_1" xmlns="http://www.w3.org/2000/svg" xmlns:xlink="http://www.w3.org/1999/xlink" x="0px" y="0px"
	 viewBox="0 0 412.6 58.3" style="enable-background:new 0 0 412.6 58.3;" xml:space="preserve">
<g>
	<path d="M25.4,29.8h15h8h1.9c0-14-11.2-25.4-24.9-25.4C11.7,4.4,0.5,15.8,0.5,29.8s11.1,25.4,24.9,25.4c10.7,0,19.8-6.8,23.3-16.5
		H37.6c-2.7,3.9-7.2,6.4-12.2,6.4c-8.3,0-15-6.8-15-15.3s6.7-15.3,15-15.3c5,0,9.4,2.5,12.2,6.4H25.4V29.8z"/>
	<path d="M78.5,38.6c-0.5,1.2-1.6,1.1-1.6,1.1c-1.2,0-1.6-1.1-1.6-1.1L61.9,4.4H52l18,45.8v0l0.2,0.5c0.6,1.3,2.4,4.4,6.6,4.4h0.5
		c1.2-0.1,4.4-0.7,6.4-5l18-45.8H92L78.5,38.6z"/>
	<path d="M166.1,15.4v-11h-10v50.8h10V25.8c0.3-2,2.4-10.8,12.1-11.2v0h27.6V4.4h-28.1C177.8,4.4,168.1,4.8,166.1,15.4z"/>
	<path d="M284,3.1c-13.9,0-25.2,11.5-25.2,25.6s11.3,25.6,25.2,25.6s25.2-11.5,25.2-25.6S297.9,3.1,284,3.1z M284,45.9
		c-9.2,0-16.8-7.7-16.8-17.1s7.5-17.1,16.8-17.1s16.8,7.7,16.8,17.1C300.8,38.2,293.3,45.9,284,45.9z"/>
	<path d="M386.9,3.1c-13.9,0-25.2,11.5-25.2,25.6s11.3,25.6,25.2,25.6c13.9,0,25.2-11.5,25.2-25.6S400.8,3.1,386.9,3.1z M386.9,45.9
		c-9.2,0-16.8-7.7-16.8-17.1s7.5-17.1,16.8-17.1c9.2,0,16.8,7.7,16.8,17.1C403.7,38.2,396.2,45.9,386.9,45.9z"/>
	<path d="M320.5,40.1v-37h-8.6v38.5c0.1,3,1.5,12.8,13.7,12.8h31.6l6.4-9h-38.2C320.7,45.4,320.5,40.6,320.5,40.1z"/>
	<path d="M128.7,20.9v8.5v0.4h15h8h1.9c0-14-11.1-25.4-24.9-25.4s-24.9,11.4-24.9,25.4s11.2,25.4,24.9,25.4
		c10.7,0,19.8-6.8,23.3-16.5h-11.2c-2.7,3.9-7.2,6.4-12.2,6.4c-8.3,0-15-6.8-15-15.3s6.7-15.3,15-15.3c5,0,9.4,2.5,12.2,6.4h-3.7
		L128.7,20.9L128.7,20.9L128.7,20.9z"/>
	<path d="M255.5,21.2h-39c2.8-5.8,8.7-9.5,15-9.5c4.7,0,9.3,2.1,12.4,5.7l0.4,0.5h10l-1.3-2.1C248.6,8,240.3,3.1,231.5,3.1
		c-13.9,0-25.2,11.5-25.2,25.6v1.4h41.9c-0.7,8.8-8,15.7-16.7,15.7c-7.1,0-13.4-4.6-15.8-11.4l-0.3-0.9h-8.7l0.5,1.8
		c2.9,11.3,12.9,19.1,24.3,19.1c13.9,0,25.2-11.5,25.2-25.6c0-2.2-0.3-4.4-0.8-6.6L255.5,21.2z"/>
</g>
</svg>
